<?xml version="1.0" encoding="UTF-8"?>
<svg version="1.1" xmlns="http://www.w3.org/2000/svg" width="200" height="200">
<path d="M0 0 C66 0 132 0 200 0 C200 66 200 132 200 200 C134 200 68 200 0 200 C0 134 0 68 0 0 Z " fill="#FDFCFB" transform="translate(0,0)"/>
<path d="M0 0 C11.88 0 23.76 0 36 0 C36 55.44 36 110.88 36 168 C24.12 168 12.24 168 0 168 C0 112.56 0 57.12 0 0 Z " fill="#221E20" transform="translate(16,16)"/>
<path d="M0 0 C11.88 0 23.76 0 36 0 C36 42.9 36 85.8 36 130 C24.12 130 12.24 130 0 130 C0 87.1 0 44.2 0 0 Z " fill="#BFA263" transform="translate(148,54)"/>
<path d="M0 0 C11.88 0 23.76 0 36 0 C36 33.33 36 66.66 36 101 C24.12 101 12.24 101 0 101 C0 67.67 0 34.34 0 0 Z " fill="#C0A262" transform="translate(104,83)"/>
<path d="M0 0 C11.88 0 23.76 0 36 0 C36 29.04 36 58.08 36 88 C24.12 88 12.24 88 0 88 C0 58.96 0 29.92 0 0 Z " fill="#221E20" transform="translate(60,16)"/>
<path d="M0 0 C11.88 0 23.76 0 36 0 C36 23.43 36 46.86 36 71 C24.12 71 12.24 71 0 71 C0 47.57 0 24.14 0 0 Z " fill="#BFA263" transform="translate(60,113)"/>
<path d="M0 0 C11.88 0 23.76 0 36 0 C36 19.47 36 38.94 36 59 C24.12 59 12.24 59 0 59 C0 39.53 0 20.06 0 0 Z " fill="#221E1F" transform="translate(104,16)"/>
<path d="M0 0 C11.88 0 23.76 0 36 0 C36 9.9 36 19.8 36 30 C24.12 30 12.24 30 0 30 C0 20.1 0 10.2 0 0 Z " fill="#C0A365" transform="translate(148,16)"/>
<path d="M0 0 C11.88 0 23.76 0 36 0 C36 33.33 36 66.66 36 101 C24.12 101 12.24 101 0 101 C0 67.67 0 34.34 0 0 Z M20.8125 1.4375 C18.96301758 1.49647461 18.96301758 1.49647461 17.07617188 1.55664062 C15.28469727 1.61948242 15.28469727 1.61948242 13.45703125 1.68359375 C12.36366455 1.72025146 11.27029785 1.75690918 10.14379883 1.79467773 C6.50629992 1.97974728 6.50629992 1.97974728 1 3 C1 35.01 1 67.02 1 100 C12.22 100 23.44 100 35 100 C35 67.33 35 34.66 35 1 C30.27317163 1 25.53593049 1.27462309 20.8125 1.4375 Z " fill="#BBA577" transform="translate(104,83)"/>
<path d="M0 0 C0.66 0.33 1.32 0.66 2 1 C4.22746339 1.09772811 6.4578947 1.13077394 8.6875 1.1328125 C9.34580811 1.13376923 10.00411621 1.13472595 10.68237305 1.13571167 C12.07438248 1.13639225 13.4663951 1.13454646 14.85839844 1.13037109 C16.99160883 1.12502104 19.12460867 1.13032012 21.2578125 1.13671875 C22.60937547 1.13605795 23.9609383 1.13477674 25.3125 1.1328125 C26.54613281 1.13168457 27.77976563 1.13055664 29.05078125 1.12939453 C31.93225331 1.20369803 31.93225331 1.20369803 34 0 C34.495 1.485 34.495 1.485 35 3 C23.12 3 11.24 3 -1 3 C-0.67 2.01 -0.34 1.02 0 0 Z " fill="#FFFEEB" transform="translate(105,80)"/>
</svg>
